<svg viewBox="0 0 1024 1024" xmlns="http://www.w3.org/2000/svg">
  <path d="M145.887236 114.024952c29.43339 23.034827 59.719921 46.496224 90.006453 69.531051 2.132854 0.853142 4.69228 0.853142 6.825134 0 22.181685-10.237701 43.510228-22.181685 65.691913-31.139673 153.565512-62.279346 327.179854-51.188504 470.934236 30.286531a8.531417 8.531417 0 0 0 11.517413 0c21.755114-17.489406 43.936799-34.978811 66.118485-52.041645l22.181685-17.489406C652.226854-45.512552 345.522401-29.72943 145.460665 113.17181c0 0.426571 0.426571 0.426571 0.426571 0.853142z m760.575854 36.258524c-21.328543 27.300535-42.230516 54.601071-63.559059 81.475035-4.265709 3.839138-4.69228 10.237701-1.279712 14.92998 40.950803 72.090476 64.412201 153.138941 68.677909 236.32026 5.545421 103.65672-18.769118 206.460299-69.957622 296.466752-2.132854 3.412567-1.706283 8.531417 1.279713 11.090842l25.167681 31.566244 44.789941 57.160496a655.21285 655.21285 0 0 0 0-734.555031l-5.118851 5.545422z m-766.974417 28.580248l-26.447394-33.699099a652.312168 652.312168 0 0 0 0 733.70189c23.887968-30.713102 47.349366-60.573063 70.810764-90.859595 0.853142-2.559425 0.853142-5.11885 0-7.251705-10.237701-21.755114-21.755114-42.657087-30.713102-64.4122-63.132488-153.992083-51.615075-328.032996 30.286531-472.213949a6.825134 6.825134 0 0 0-0.853141-9.81113c-14.076839-18.342547-28.580248-37.111665-43.083658-55.454212z m483.731362 569.472106V387.883448c0-5.11885 0.426571-8.957988 6.398563-10.237701 15.356551-3.412567 30.286531-6.398563 45.643083-8.531417 49.05565-6.398563 98.53787 5.545421 139.488673 33.272527h2.559425V327.310385c0.853142-6.825134-2.985996-12.797126-8.957988-15.356551-31.139673-16.209693-65.265342-25.167681-100.244154-26.020823-55.880783-1.279713-111.761567 8.104846-164.656354 27.727106-4.265709 0.853142-7.678276 5.11885-6.825134 9.81113v436.808567h87.020457l-0.426571-11.943984z m-260.634799-277.271063c-17.489406-9.384559-34.55224-19.195689-52.041646-30.286532a32.078129 32.078129 0 0 1-16.209692-27.727106c-1.706283-18.769118 9.81113-35.831953 27.727106-41.803945a124.558693 124.558693 0 0 1 69.531051-3.412567c29.43339 4.69228 56.307354 17.915976 78.062468 37.538236l1.279713-6.825134c0-6.995762-0.170628-13.948867-0.383914-20.901972-0.383914-13.692925-0.767828-27.300535 0.383914-40.950803a25.295652 25.295652 0 0 0-16.636264-26.873965c-37.964807-18.769118-80.621894-26.020823-122.425838-20.04883-35.405382 2.559425-68.677909 18.342547-93.845591 43.936799a117.733559 117.733559 0 0 0 1.706284 161.670358c20.901972 19.195689 44.789941 34.55224 70.810763 45.643083 23.887968 9.81113 46.496224 23.034827 67.398197 38.391378 21.328543 16.209693 28.153677 45.643083 15.783122 69.957622-8.531417 18.342547-27.300535 29.859961-47.775937 28.580248-41.803945 2.559425-83.60789-11.943984-115.174134-39.671091-8.531417-6.825134-15.783122-14.92998-24.314539-23.034827v89.153311c-0.426571 6.398563 2.559425 12.370555 8.531417 15.356552 45.643083 30.713102 101.097295 43.936799 155.698367 37.111665 31.992815-2.985996 61.852776-17.915976 83.607889-41.803945a135.990792 135.990792 0 0 0-4.265708-184.278614c-26.020823-24.314539-55.454213-44.36337-87.447028-59.719921z m418.89259 368.557228c-71.237335 40.950803-150.579516 64.838772-232.054551 69.957622-82.754748 5.971992-165.509496-7.251705-241.865681-38.817949-23.461398-9.81113-46.069654-21.328543-69.957622-32.419386l-93.419019 72.943618c124.985264 84.461031 275.138209 123.705551 425.717724 110.055284 110.481854-9.384559 217.124571-47.349366 309.263878-109.628713a9.299245 9.299245 0 0 0-1.706284-2.132854c-29.859961-23.887968-59.29335-46.922795-89.153311-69.957622a9.384559 9.384559 0 0 0-6.825134 0z" fill="currentColor"/>
  <path d="M775.932405 522.253271v-1.279713c-0.426571-29.006819-24.314539-52.894787-53.747929-52.468216-27.727106 0.853142-50.335362 22.608256-52.468216 50.335362v4.692279c0 29.006819 23.461398 52.041646 52.468216 52.041646 29.43339 0 53.747929-23.887968 53.747929-53.321358z" fill="#EA0414"/>
</svg>
